<svg width="124" height="130" viewBox="0 0 124 130" fill="none" xmlns="http://www.w3.org/2000/svg">
<path d="M46.3482 62.2146C46.3482 62.2146 83.2313 61.7172 83.2313 103.669C83.2313 61.5514 120.114 62.2146 120.114 62.2146C120.114 62.2146 83.2313 62.7121 83.2313 20.7601C83.0737 62.7121 46.3482 62.2146 46.3482 62.2146Z" fill="#E3B78D"/>
<path d="M87.3294 41.819C84.8075 36.347 83.2313 29.5485 83.2313 20.7601C83.2313 61.3855 48.7125 62.2146 46.5058 62.2146C47.6091 62.2146 55.4901 62.3804 63.5288 66.5259C72.0403 63.8728 82.916 57.4059 87.3294 41.819Z" fill="#E3B78D"/>
<path d="M4.57886 98.1971C4.57886 98.1971 30.9014 97.8655 30.9014 127.879C30.9014 97.8655 57.224 98.1971 57.224 98.1971C57.224 98.1971 30.9014 98.5288 30.9014 68.5157C30.9014 98.5288 4.57886 98.1971 4.57886 98.1971Z" fill="#E3B78D"/>
<path d="M34.5267 84.9317C32.32 80.7862 30.9014 75.4801 30.9014 68.5157C30.9014 97.5339 6.31268 98.1971 4.73648 98.1971C5.52458 98.1971 12.1446 98.3629 18.4494 102.177C24.2814 100.021 31.5319 95.3782 34.5267 84.9317Z" fill="#E3B78D"/>
<path d="M22.0747 26.7296C22.0747 26.7296 43.0382 26.398 43.0382 50.4416C43.0382 26.398 64.0016 26.7296 64.0016 26.7296C64.0016 26.7296 43.0382 27.0612 43.0382 3.01764C43.0382 26.8954 22.0747 26.7296 22.0747 26.7296Z" fill="#E3B78D"/>
<path d="M46.5058 16.9463C44.4567 13.63 43.1958 8.98709 43.1958 3.01764C43.1958 26.2322 23.4933 26.7296 22.2323 26.7296C22.8628 26.7296 28.6947 26.8954 33.8962 30.3776C38.4672 28.7194 43.9839 25.0714 46.5058 16.9463Z" fill="#E3B78D"/>
</svg>
