<svg width="161" height="108" viewBox="0 0 161 108" fill="none" xmlns="http://www.w3.org/2000/svg">
<path d="M82.4511 82.0884V81.4644C79.2619 81.4298 76.2113 81.2565 73.2647 81.0138C71.6701 85.139 69.4168 88.9869 66.6089 92.4188C71.9128 93.2855 77.2859 93.7708 82.6591 93.8401L82.4511 82.0884Z" fill="#FFE383"/>
<path d="M68.4115 59.1397C65.8463 46.8681 56.7985 36.8843 44.7695 33.1058C41.4416 32.1005 38.0097 31.5805 34.5431 31.5805C25.946 31.6151 17.6262 34.8044 11.2824 40.5589C-2.82653 53.3852 -3.83183 75.2593 8.99448 89.3682C21.8208 103.477 43.6949 104.482 57.8038 91.6562C65.0143 85.1043 69.1395 75.8486 69.1048 66.1075C69.1048 63.7849 68.8622 61.4277 68.4115 59.1397ZM34.5431 61.4623C40.4016 61.4623 45.5668 65.3449 47.1614 70.9954C49.1027 77.9632 45.0815 85.1737 38.079 87.1496V90.2002C38.079 92.1068 36.5191 93.6668 34.6125 93.6668C32.7058 93.6668 31.1459 92.1068 31.1459 90.2002V87.1843C25.426 85.6243 21.4741 80.4591 21.4395 74.5313C21.4395 72.6247 22.9994 71.0647 24.9061 71.0647C26.8127 71.0647 28.3726 72.6247 28.3726 74.5313C28.3726 77.9285 31.1459 80.6671 34.5431 80.6671C37.9404 80.6671 40.679 77.8939 40.679 74.4966C40.679 71.0994 37.9057 68.3608 34.5085 68.3608C28.5806 68.3608 23.4154 64.3742 21.8901 58.6544C20.0529 51.7213 24.2127 44.5108 31.1805 42.6388V41.1482C31.1805 39.2416 32.7405 37.6816 34.6471 37.6816C36.5537 37.6816 38.1137 39.2416 38.1137 41.1482V42.7082C43.7642 44.3028 47.6468 49.468 47.6468 55.3265C47.6468 57.2331 46.0868 58.7931 44.1802 58.7931C42.2736 58.7931 40.7136 57.2331 40.7136 55.3265C40.7136 51.9292 37.9404 49.156 34.5431 49.156C31.1459 49.156 28.4073 51.8946 28.3726 55.3265C28.3726 58.7237 31.1459 61.4623 34.5431 61.4623Z" fill="#FFE383"/>
<path d="M82.3471 74.4966L82.1392 62.225C79.9899 62.1903 77.8753 62.121 75.8646 61.9823C75.9686 63.3689 76.038 64.7209 76.038 66.0729C76.038 68.7768 75.7607 71.5154 75.2407 74.1846C77.5286 74.3926 79.9205 74.4966 82.3471 74.4966Z" fill="#FFE383"/>
<path d="M120.306 17.1249C117.914 18.3728 115.384 19.3781 112.784 20.1408C104.984 22.498 94.7575 23.7807 84.0804 23.7807C73.854 23.7807 64.113 22.602 56.5905 20.4181C53.9906 19.7248 51.4947 18.7541 49.1027 17.5408L49.3454 27.3166C53.2626 28.7725 56.9025 30.8525 60.1957 33.4524C60.2997 33.4871 60.3691 33.4871 60.4731 33.5217C67.1289 35.2204 75.518 36.1217 84.0804 36.1217C93.9948 36.1217 103.736 34.8737 110.773 32.7591C118.296 30.4712 119.959 28.0792 119.959 27.6286C119.959 27.1433 119.925 26.6926 120.306 26.2073V17.1249Z" fill="#FFE383"/>
<path d="M110.738 3.36257C103.701 1.2133 93.9602 0 84.0458 0C74.062 0 64.7023 1.2133 57.6998 3.36257C50.3853 5.58118 48.7907 7.76512 48.7561 8.45844C48.7561 8.45844 48.7907 8.45844 48.7907 8.52777C48.9641 9.29041 51.044 11.6477 58.4971 13.797C65.3956 15.8076 74.478 16.9169 84.0458 16.9169C93.9602 16.9169 103.667 15.7036 110.704 13.589C118.226 11.3357 119.925 8.94376 119.925 8.45844C119.925 8.00778 118.261 5.65051 110.738 3.36257Z" fill="#FFE383"/>
<path d="M160.102 99.2826V88.8829C157.78 90.0615 155.353 91.0668 152.823 91.8295C145.057 94.1868 134.9 95.4694 124.189 95.4694C114.69 95.4694 105.435 94.3948 98.1547 92.4881C95.1735 91.7255 92.2962 90.6855 89.5229 89.3336L89.6963 99.3866C89.6963 99.4213 89.6963 99.4213 89.6963 99.4559C89.6963 99.9759 91.2216 102.299 98.536 104.552C105.469 106.666 114.829 107.845 124.847 107.845C134.831 107.845 144.225 106.632 151.228 104.448C158.542 102.16 160.137 99.7679 160.137 99.2826H160.102Z" fill="#FFE383"/>
<path d="M120.237 36.4683C117.845 37.6816 115.349 38.687 112.749 39.4496C104.949 41.8069 94.7228 43.0895 84.0111 43.0895C78.7419 43.0895 73.5074 42.7428 68.3075 42.0842C71.1154 45.9668 73.1954 50.3346 74.5127 54.9798C77.4939 55.1878 80.7178 55.3265 84.0458 55.3265C84.1497 55.3265 84.2884 55.3265 84.3924 55.3265C90.0776 49.0867 105.365 45.9668 120.237 45.5508V36.4683Z" fill="#FFE383"/>
<path d="M152.58 72.6594C144.849 74.9473 134.796 76.1953 124.258 76.1953C114.032 76.1953 104.291 75.0166 96.7681 72.8327C94.1682 72.1047 91.6376 71.1341 89.211 69.9208L89.3496 77.8939L89.3843 80.8058C92.0882 84.1684 105.019 88.5016 124.223 88.5016C134.242 88.5016 143.705 87.323 150.812 85.1737C158.3 82.8857 159.929 80.5285 159.929 80.0432C159.929 79.6618 160.137 79.2458 160.137 78.8992H160.172V69.7128C157.745 70.9261 155.215 71.966 152.58 72.6594Z" fill="#FFE383"/>
<path d="M150.951 55.8465C143.879 53.6972 134.172 52.5532 124.258 52.5532H123.669C114.448 52.5532 105.677 53.5932 98.9521 55.4998C91.7763 57.5104 89.315 59.7984 89.003 60.7343C88.9683 60.8037 88.9683 60.8383 88.9683 60.873C88.9683 60.873 88.9683 60.873 89.0377 61.0117C89.2457 61.7397 91.2909 64.0969 98.7441 66.2809C105.643 68.2568 114.725 69.3661 124.293 69.3661C134.172 69.3661 143.532 68.2221 150.639 66.1075C158.334 63.8196 160.068 61.4277 160.102 60.9077V60.873C160.068 60.353 158.334 58.0651 150.951 55.8465Z" fill="#FFE383"/>
</svg>
