<svg width="134" height="142" viewBox="0 0 134 142" fill="none" xmlns="http://www.w3.org/2000/svg">
<path d="M47.5676 68.4637L76.814 37.4039C77.4904 36.685 78.3934 36.2889 79.3562 36.2889C80.319 36.2889 81.222 36.685 81.8984 37.4039L84.0522 39.6907C85.4537 41.1808 85.4537 43.6027 84.0522 45.0906L59.4933 71.1727L84.0795 97.2838C84.7559 98.0028 85.1294 98.9612 85.1294 99.9832C85.1294 101.006 84.7559 101.965 84.0795 102.684L81.9257 104.97C81.2487 105.689 80.3463 106.086 79.3834 106.086C78.4206 106.086 77.5176 105.689 76.8412 104.97L47.5676 73.8823C46.8895 73.1611 46.5171 72.1981 46.5192 71.1744C46.5171 70.1468 46.8895 69.1844 47.5676 68.4637Z" fill="white"/>
</svg>
