<svg width="116" height="137" viewBox="0 0 116 137" fill="none" xmlns="http://www.w3.org/2000/svg">
<path fill-rule="evenodd" clip-rule="evenodd" d="M83.291 62.5978H79.684H70.0654H31.5911H21.9726H18.3656C12.4021 62.5978 7.54471 67.0735 7.54471 72.5783V119.154C7.54471 124.659 12.4021 129.134 18.3656 129.134H83.291C89.2545 129.134 94.1119 124.659 94.1119 119.154V72.5783C94.1119 67.0735 89.2545 62.5978 83.291 62.5978ZM55.6376 106.956V96.8509C58.4991 95.3117 60.4469 92.4817 60.4469 89.2125C60.4469 84.3198 56.1329 80.3409 50.8283 80.3409C45.5236 80.3409 41.2097 84.3198 41.2097 89.2125C41.2097 92.4817 43.1575 95.3117 46.019 96.8509V106.956C46.019 109.404 48.1688 111.391 50.8283 111.391C53.4878 111.391 55.6376 109.404 55.6376 106.956Z" fill="#E3B78D"/>
<path fill-rule="evenodd" clip-rule="evenodd" d="M79.9359 47.7158V64.8408H70.2692V47.7158C70.2692 35.1232 61.5982 24.8825 50.9359 24.8825C40.2735 24.8825 31.6025 35.1232 31.6025 47.7158C31.6025 47.7158 31.6439 63.2308 31.6025 64.8408H21.9359V47.7158C21.9359 28.8269 34.9424 13.4658 50.9359 13.4658C66.9294 13.4658 79.9359 28.8269 79.9359 47.7158Z" fill="#E2E2E2"/>
</svg>
