<svg width="134" height="142" viewBox="0 0 134 142" fill="none" xmlns="http://www.w3.org/2000/svg">
<path d="M86.4324 68.4637L57.186 37.4039C56.5096 36.685 55.6066 36.2889 54.6438 36.2889C53.681 36.2889 52.778 36.685 52.1016 37.4039L49.9478 39.6907C48.5463 41.1808 48.5463 43.6027 49.9478 45.0906L74.5067 71.1727L49.9205 97.2838C49.2441 98.0028 48.8706 98.9612 48.8706 99.9832C48.8706 101.006 49.2441 101.965 49.9205 102.684L52.0743 104.97C52.7513 105.689 53.6537 106.086 54.6166 106.086C55.5794 106.086 56.4824 105.689 57.1588 104.97L86.4324 73.8823C87.1105 73.1611 87.4829 72.1981 87.4808 71.1744C87.4829 70.1468 87.1105 69.1844 86.4324 68.4637Z" fill="white"/>
</svg>
